<?xml version="1.0" encoding="utf-8"?>
<!-- Generator: Adobe Illustrator 25.4.1, SVG Export Plug-In . SVG Version: 6.00 Build 0)  -->
<svg version="1.1" id="Layer_1" xmlns="http://www.w3.org/2000/svg" xmlns:xlink="http://www.w3.org/1999/xlink" x="0px" y="0px"
	 viewBox="0 0 535.91 236.91" style="enable-background:new 0 0 535.91 236.91;" xml:space="preserve">
<style type="text/css">
	.st0{font-family:'PlayfairDisplay-Regular';}
	.st1{font-size:120px;}
	.st2{letter-spacing:2;}
	.st3{letter-spacing:-2;}
</style>
<g>
	<path d="M108.34,88.36c2.2,0,3.98-1.78,3.98-3.98V68.11c0-2.2-1.78-3.98-3.98-3.98s-3.98,1.78-3.98,3.98v16.27
		C104.36,86.58,106.14,88.36,108.34,88.36z"/>
	<path d="M81.82,92.21c1.1,1.9,3.54,2.56,5.44,1.46c1.9-1.1,2.56-3.54,1.46-5.44l-8.14-14.09c-1.1-1.9-3.54-2.56-5.44-1.46
		c-1.9,1.1-2.56,3.54-1.46,5.44L81.82,92.21z"/>
	<path d="M52.13,102.12l14.09,8.14c1.9,1.1,4.34,0.45,5.44-1.46c1.1-1.9,0.45-4.34-1.46-5.44l-14.09-8.14
		c-1.9-1.1-4.34-0.45-5.44,1.46C49.57,98.59,50.22,101.02,52.13,102.12z"/>
	<path d="M65.72,129.71c0-2.2-1.78-3.98-3.98-3.98H45.46c-2.2,0-3.98,1.78-3.98,3.98c0,2.2,1.78,3.98,3.98,3.98h16.27
		C63.93,133.69,65.72,131.91,65.72,129.71z"/>
	<path d="M86.16,166.39c-1.9-1.1-4.34-0.45-5.44,1.46l-8.14,14.09c-1.1,1.9-0.45,4.34,1.46,5.44c1.9,1.1,4.34,0.45,5.44-1.46
		l8.14-14.09C88.72,169.92,88.06,167.49,86.16,166.39z"/>
	<path d="M107.06,172.33c-2.2,0-3.98,1.78-3.98,3.98v16.27c0,2.2,1.78,3.98,3.98,3.98c2.2,0,3.98-1.78,3.98-3.98v-16.27
		C111.05,174.12,109.26,172.33,107.06,172.33z"/>
	<path d="M133.58,168.49c-1.1-1.9-3.54-2.56-5.44-1.46c-1.9,1.1-2.56,3.54-1.46,5.44l8.14,14.09c1.1,1.9,3.54,2.56,5.44,1.46
		c1.9-1.1,2.56-3.54,1.46-5.44L133.58,168.49z"/>
	<path d="M163.28,158.57l-14.09-8.14c-1.9-1.1-4.34-0.45-5.44,1.46c-1.1,1.9-0.45,4.34,1.46,5.44l14.09,8.14
		c1.9,1.1,4.34,0.45,5.44-1.46C165.84,162.11,165.18,159.67,163.28,158.57z"/>
	<path d="M169.94,127h-16.27c-2.2,0-3.98,1.78-3.98,3.98c0,2.2,1.78,3.98,3.98,3.98h16.27c2.2,0,3.98-1.78,3.98-3.98
		C173.93,128.79,172.14,127,169.94,127z"/>
	<path d="M149.82,111.37l14.09-8.14c1.9-1.1,2.56-3.54,1.46-5.44c-1.1-1.9-3.54-2.56-5.44-1.46l-14.09,8.14
		c-1.9,1.1-2.56,3.54-1.46,5.44C145.48,111.81,147.92,112.47,149.82,111.37z"/>
	<path d="M141.37,73.32c-1.9-1.1-4.34-0.45-5.44,1.46l-8.14,14.09c-1.1,1.9-0.45,4.34,1.46,5.44c1.9,1.1,4.34,0.45,5.44-1.46
		l8.14-14.09C143.93,76.85,143.27,74.42,141.37,73.32z"/>
	<path d="M165.16,61.51C165.16,61.5,165.16,61.5,165.16,61.51c5.01-2.2,6.31-10.87,0-14.52c-6.31-3.65-13.14,5.71-13.14,5.71
		s0,0,0,0c-10.86-5.99-23.06-9.84-36.02-10.98V29.99c0,0,13.62,4.25,13.62-9.93c0-13.71-44.51-14.18-44.51,1.89
		c0,10.87,14.28,8.04,14.28,8.04v11.76c-12.03,1.12-23.4,4.58-33.64,9.91c0,0-9.87-14.32-17.51-8.67
		c-7.64,5.65,3.93,17.34,3.93,17.34l0.04-0.02c-21.77,16.75-35.83,43.06-35.83,72.59c0,50.48,41.07,91.54,91.54,91.54
		s91.54-41.07,91.54-91.54C199.48,104.06,186.07,78.3,165.16,61.51z M107.93,206.53c-40.66,0-73.63-32.97-73.63-73.63
		s32.97-73.63,73.63-73.63s73.63,32.97,73.63,73.63S148.6,206.53,107.93,206.53z"/>
	<path d="M111.27,120.78l-3.9-25.94l-5.22,26.53c-3.42,1.86-5.74,5.48-5.74,9.64c0,1.09,0.17,2.15,0.46,3.15l0-0.01l-25.54,19.94
		c0.37-1.06,0.3-2.26-0.31-3.31c-1.1-1.9-3.54-2.56-5.44-1.46l-14.09,8.14c-1.9,1.1-2.56,3.54-1.46,5.44
		c1.1,1.9,3.54,2.56,5.44,1.46l14.09-8.14c0.65-0.38,1.15-0.91,1.49-1.52l31.09-14.06c1.55,0.84,3.33,1.32,5.22,1.32
		c6.05,0,10.96-4.91,10.96-10.96C118.33,126.34,115.4,122.35,111.27,120.78z"/>
</g>
<text transform="matrix(1 0 0 1 206.085 171.6741)"><tspan x="0" y="0" class="st0 st1 st2">pti</tspan><tspan x="154.2" y="0" class="st0 st1 st3">m</tspan><tspan x="258.24" y="0" class="st0 st1 st2">e</tspan></text>
</svg>
